<svg width="32" height="32" viewBox="0 0 32 32" fill="none" xmlns="http://www.w3.org/2000/svg">
<path d="M32 16C32 7.16345 24.8365 -5.4206e-06 16 -5.4206e-06C7.16346 -5.4206e-06 0 7.16345 0 16C0 23.5037 5.16576 29.7998 12.1348 31.5288V20.8893H8.83546V16H12.1348V13.8932C12.1348 8.44729 14.5993 5.92313 19.9459 5.92313C20.9595 5.92313 22.7085 6.12185 23.4241 6.32064V10.7529C23.0464 10.7131 22.3905 10.6932 21.5756 10.6932C18.9521 10.6932 17.9384 11.687 17.9384 14.2708V16H23.1645L22.2668 20.8893H17.9384V31.8828C25.8607 30.9259 32 24.1803 32 16Z" fill="#0866FF"/>
<path d="M22.2672 20.8893L23.1651 16H17.9389V14.2708C17.9389 11.687 18.9525 10.6932 21.5761 10.6932C22.391 10.6932 23.0469 10.7131 23.4245 10.7528V6.32064C22.709 6.12186 20.96 5.92307 19.9463 5.92307C14.5998 5.92307 12.1353 8.44729 12.1353 13.8932V16H8.83594V20.8893H12.1353V31.5288C13.3732 31.8359 14.6676 32 16.0005 32C16.6567 32 17.3034 31.9596 17.9389 31.8828V20.8893H22.2672Z" fill="white"/>
</svg>
