<svg width="32" height="31" viewBox="0 0 32 31" fill="none" xmlns="http://www.w3.org/2000/svg">
<path d="M16.0258 28.8133C23.5636 28.8133 29.6742 22.7027 29.6742 15.165C29.6742 7.62718 23.5636 1.5166 16.0258 1.5166C8.48802 1.5166 2.37744 7.62718 2.37744 15.165C2.37744 22.7027 8.48802 28.8133 16.0258 28.8133Z" stroke="#EDDFBB" stroke-width="3.03297"/>
<path d="M7.46018 15.8326C9.05568 14.9537 10.8367 14.2202 12.5008 13.483C15.3636 12.2755 18.2378 11.0888 21.1411 9.98412C21.7059 9.79588 22.7209 9.61186 22.8204 10.449C22.7659 11.6339 22.5417 12.8118 22.388 13.9898C21.9977 16.5803 21.5465 19.1618 21.1067 21.7438C20.9551 22.6037 19.8778 23.049 19.1885 22.4986C17.5318 21.3796 15.8623 20.2715 14.2268 19.1265C13.691 18.582 14.1879 17.8003 14.6663 17.4116C16.0308 16.0667 17.4779 14.9244 18.771 13.5102C19.4377 12.6172 18.1256 13.3359 17.7492 13.5952C15.8812 14.8825 14.0589 16.2484 12.0895 17.3797C11.0835 17.9335 9.91098 17.4602 8.90543 17.1512C8.00384 16.7779 6.68268 16.4018 7.46007 15.8327L7.46018 15.8326Z" fill="#EDDFBB"/>
</svg>
