<svg width="32" height="32" viewBox="0 0 32 32" fill="none" xmlns="http://www.w3.org/2000/svg">
<g clip-path="url(#clip0_2605_332)">
<path d="M16 32C24.8366 32 32 24.8366 32 16C32 7.16344 24.8366 0 16 0C7.16344 0 0 7.16344 0 16C0 24.8366 7.16344 32 16 32Z" fill="url(#paint0_linear_2605_332)"/>
<path fill-rule="evenodd" clip-rule="evenodd" d="M7.24334 15.8312C11.9077 13.799 15.0179 12.4593 16.5742 11.812C21.0175 9.96384 21.9408 9.64279 22.5426 9.63219C22.675 9.62986 22.9709 9.66266 23.1626 9.81821C23.3245 9.94956 23.369 10.127 23.3903 10.2515C23.4117 10.376 23.4382 10.6597 23.4171 10.8814C23.1763 13.4114 22.1344 19.5509 21.6044 22.3846C21.3801 23.5836 20.9385 23.9856 20.5109 24.0249C19.5818 24.1104 18.8762 23.4109 17.9763 22.821C16.5681 21.8979 15.7725 21.3233 14.4056 20.4225C12.8259 19.3815 13.85 18.8093 14.7503 17.8743C14.9859 17.6296 19.0797 13.9059 19.1589 13.5681C19.1689 13.5258 19.1781 13.3684 19.0845 13.2852C18.9909 13.2021 18.8529 13.2305 18.7532 13.2531C18.612 13.2852 16.3624 14.7721 12.0043 17.7139C11.3658 18.1524 10.7874 18.366 10.2692 18.3548C9.69791 18.3425 8.599 18.0318 7.78206 17.7662C6.78006 17.4405 5.98369 17.2683 6.05304 16.7152C6.08916 16.427 6.48592 16.1324 7.24334 15.8312Z" fill="white"/>
</g>
<defs>
<linearGradient id="paint0_linear_2605_332" x1="1600" y1="0" x2="1600" y2="3176.27" gradientUnits="userSpaceOnUse">
<stop stop-color="#2AABEE"/>
<stop offset="1" stop-color="#229ED9"/>
</linearGradient>
<clipPath id="clip0_2605_332">
<rect width="32" height="32" fill="white"/>
</clipPath>
</defs>
</svg>
