<svg width="100" height="104" viewBox="0 0 100 104" fill="none" xmlns="http://www.w3.org/2000/svg">
<path fill-rule="evenodd" clip-rule="evenodd" d="M89.7864 81.9251C89.5619 82.9788 88.6502 83.8513 87.4045 84.2084C87.0095 85.2039 86.2601 85.8938 85.1645 86.2792C84.384 87.1395 83.2478 87.8767 81.7586 88.4908C83.4872 89.347 83.0409 91.0229 80.3897 91.0135C78.0442 91.0053 77.0352 91.8602 77.3666 93.578C77.4423 94.6317 77.1515 95.0605 76.4901 94.8644C76.0275 93.6538 75.3999 92.5649 74.6099 91.5964C73.7767 91.9305 72.9448 92.2498 72.1076 92.55C72.3456 92.7015 72.5945 92.8544 72.8502 93.0086C73.4115 94.5019 72.7379 94.5776 70.8293 93.2358C70.552 93.2101 70.3194 93.2061 70.1354 93.225C69.9866 93.2737 69.8365 93.3224 69.6864 93.3697C69.3468 93.67 69.9866 94.4072 71.6057 95.5786C72.0697 96.3618 71.856 96.6864 70.9646 96.5498C68.2891 95.6773 68.5474 94.5885 67.3219 93.8553C66.4495 93.3332 65.9179 93.5375 65.6204 94.2341C65.5419 94.4153 66.5442 95.1566 67.1799 95.8302C70.295 97.7671 71.1269 98.6166 69.6782 98.3758C68.2147 98.1648 66.674 97.6508 65.0495 96.8352C64.9048 96.8095 64.756 96.7824 64.5977 96.75C65.0509 100.27 64.9318 101.491 64.2461 100.416C63.5211 98.7992 63.0355 97.5088 62.7879 96.5389C61.883 94.3112 60.3979 93.367 60.5886 96.2076C61.1175 100.175 59.4415 101.481 59.5389 99.1982C59.5741 98.3285 58.4473 97.406 57.6723 96.5728C56.4549 95.258 53.5819 93.4265 55.0847 96.6444C55.7353 98.035 56.6876 99.3781 57.9428 100.677C59.2305 102.006 57.6155 102.689 56.6281 101.736C55.7299 100.87 54.8493 101.058 53.9864 102.3C52.0467 105.086 53.1951 100.083 53.3804 99.5783C54.6451 95.166 51.0038 91.0594 50.8144 95.4582C50.7793 96.2495 50.9916 98.1053 51.388 98.695C52.0034 99.6108 51.6409 100.343 50.4492 100.007C49.244 99.439 48.4541 98.7031 48.0754 97.7996C45.546 91.7412 45.1118 96.3874 45.5798 100.114C45.7056 101.119 46.808 102.566 45.2267 102.806C43.4318 103.055 42.5012 101.751 42.4295 98.8925C41.2554 98.016 40.6265 98.434 40.5439 100.149C40.3154 102.175 39.6526 103.005 38.5569 102.634C37.0839 101.21 37.3977 99.2469 39.4997 96.75C39.9569 96.3509 40.383 95.956 40.7793 95.5664C39.4416 95.6651 38.1065 95.6908 36.7769 95.6503C36.7106 95.6719 36.647 95.6908 36.5862 95.7044C35.3918 96.5051 34.449 97.6684 33.9228 99.0643C34.1041 100.255 35.9585 101.818 34.7506 102.064C32.8718 101.522 31.8452 100.141 31.6734 97.9227C31.6572 97.7036 32.6608 94.6628 31.833 94.5019C31.3136 95.0849 29.5795 96.5227 29.0101 97.9024C27.7859 100.87 26.2358 99.5188 26.3332 97.4682C26.367 96.7256 26.4955 95.8856 27.0975 95.2485C29.6593 92.5446 25.0009 93.8675 24.752 95.5109C24.5694 96.7107 24.33 97.2734 23.9025 97.1787C22.1062 96.4091 21.7126 94.9997 22.723 92.9518C22.8286 92.8381 22.9259 92.7299 23.0111 92.6244C22.4349 92.3796 22.2699 92.3133 21.7045 92.0415C20.5561 92.4513 18.3256 93.1871 17.1732 92.7137C15.3728 91.9765 15.3756 91.3516 17.3734 91.9562C18.2607 92.2227 19.1129 91.4274 19.9258 91.1514C19.8771 91.146 15.9761 90.4629 15.6853 90.3791C12.3281 89.3944 11.7275 88.5219 14.8994 89.2104C15.4851 89.3375 10.0989 85.3513 9.19944 84.4032C8.90592 84.092 7.91986 82.4689 8.94109 83.3467C13.256 87.0611 26.8364 95.4311 35.615 91.8832H35.6177C37.6885 90.4602 38.7219 87.8131 38.7125 83.9392C40.3262 87.709 43.3304 90.7132 47.1001 92.3242C40.4844 87.4831 38.2702 81.403 40.4547 74.0839C43.0044 81.0892 47.0217 86.3739 52.508 89.9422C60.502 94.3734 71.7356 92.3471 85.3092 84.092C85.5297 83.9027 85.7488 83.7106 85.9653 83.5172C86.1276 83.4766 86.2899 83.4347 86.4509 83.3887C87.6425 83.0532 88.7693 82.5609 89.7864 81.9251Z" fill="#EDDFBB"/>
<path fill-rule="evenodd" clip-rule="evenodd" d="M41.3536 62.4928C40.4284 65.9109 40.5556 69.5278 41.7188 72.8729C44.9476 83.8765 52.0191 89.452 62.9402 89.6008C55.9593 87.373 51.8825 82.835 50.703 75.9907C51.7283 78.581 53.2094 80.4138 55.1477 81.4905C54.3483 74.4527 52.1638 69.5806 48.5929 66.8699C46.7209 64.6624 44.1779 63.1272 41.3536 62.4928Z" fill="#EDDFBB"/>
<path fill-rule="evenodd" clip-rule="evenodd" d="M38.5135 43.9699C47.8467 50.1081 52.7066 58.7447 53.0854 69.8782C48.8002 62.5916 44.2622 59.2911 39.4752 59.9769C35.6081 57.507 30.4275 57.388 23.9389 59.6171C15.1495 62.2155 9.83367 60.9332 7.99004 55.7702C10.8901 59.1221 14.6004 60.0797 19.1263 58.6419C11.4636 57.1053 7.53826 52.5402 7.34619 44.9438C9.76605 54.7936 16.9458 58.4687 28.8868 55.9745C23.5439 55.3969 20.84 52.4401 20.7765 47.0985C22.1791 52.3833 26.0422 54.5191 32.3712 53.5114C35.5079 53.6615 38.6014 54.3716 41.5366 55.6147C35.1211 47.4949 27.9873 42.4157 20.134 40.3787C15.8461 39.4859 12.8974 40.2042 11.2891 42.5334C12.378 39.6902 15.0792 38.0697 17.7966 38.6338C11.0605 36.0624 8.38773 31.941 9.77688 26.2694C9.77553 32.2494 13.4736 36.268 20.8684 38.3254C15.8191 35.1683 14.0458 30.8927 15.5499 25.5011C15.7027 32.3981 18.1767 36.3668 22.9772 37.4015C20.4586 34.4271 19.3738 29.329 19.7228 22.1141C19.6659 17.4719 18.078 14.3933 14.9547 12.8797C18.6163 13.79 20.6317 16.218 21.0037 20.1636C22.2698 15.0858 26.0287 12.2805 32.2792 11.7489C24.8736 13.3396 21.726 19.8038 22.8379 31.1429C23.8564 35.8676 28.0428 40.6898 35.3957 45.6106C25.8813 34.2134 24.7816 24.7057 32.0966 17.0864C26.8606 25.7013 28.1753 34.1823 36.0368 42.5334C39.0451 38.5661 40.9969 34.3365 41.8924 29.843C39.5591 26.2964 37.2258 25.0628 34.8925 26.1409C37.4517 24.0835 39.9148 24.4799 42.2819 27.3339C42.3374 26.828 42.382 26.3167 42.4131 25.8041C42.9082 17.4665 40.4058 12.1128 47.403 5.08179C40.8522 17.0864 45.0589 17.1094 44.5057 26.8348C44.1296 33.4343 42.1318 39.1451 38.5135 43.9699Z" fill="#EDDFBB"/>
<path fill-rule="evenodd" clip-rule="evenodd" d="M57.7493 44.4717C56.7862 45.1345 55.8759 45.8257 55.0142 46.5453C51.3202 44.3121 47.2528 39.5739 50.299 35.4592C50.7589 34.8383 51.1917 34.2269 51.6016 33.6277C56.1586 32.7783 60.1042 29.5509 62.2062 24.9087C59.9635 28.2889 56.6847 30.6168 52.9975 31.4446L52.9961 31.4459C56.8254 25.048 57.3286 20.073 54.5084 16.521C56.5657 20.7547 54.5625 27.1107 48.5 35.589C45.2415 40.1447 50.0285 45.5214 53.1165 48.2537C51.6232 49.7051 50.3098 51.2565 49.1804 52.9108C50.4978 54.8559 51.5664 56.9403 52.3847 59.164C53.3343 61.7719 53.8821 64.5434 54.0025 67.3623C56.2208 66.3681 57.7452 63.7075 58.5784 59.3818C62.3171 57.5057 67.1473 57.5841 73.0678 59.6171C81.8558 62.2155 87.173 60.9333 89.0167 55.7703C86.118 59.1221 82.4064 60.0797 77.8818 58.6419C85.5404 57.1053 89.4684 52.5402 89.6578 44.9438C87.2407 54.7937 80.0595 58.4688 68.1185 55.9745C73.4628 55.3969 76.1667 52.4401 76.2302 47.0986C74.8276 52.3833 70.9631 54.5191 64.6355 53.5114C61.4988 53.6615 58.4039 54.3716 55.4701 55.6147C61.8843 47.4949 69.0207 42.4157 76.8714 40.3787C81.1606 39.486 84.1093 40.2042 85.7176 42.5334C84.6301 39.6902 81.9248 38.0697 79.2087 38.6338C85.9462 36.0624 88.619 31.941 87.2298 26.2694C87.2298 32.2494 83.5344 36.268 76.1396 38.3254C81.1876 35.1684 82.9609 30.8927 81.4541 25.5011C81.3053 32.3982 78.8314 36.3668 74.0295 37.4015C76.5481 34.4271 77.6329 29.3291 77.2839 22.1141C77.3394 17.4719 78.9274 14.3933 82.0493 12.8797C78.3904 13.79 76.375 16.218 76.0003 20.1636C74.7356 15.0859 70.978 12.2805 64.7275 11.7489C72.1331 13.3396 75.2793 19.8038 74.1675 31.1429C73.1476 35.8677 68.9639 40.6898 61.611 45.6107C71.1254 34.2134 72.2251 24.7058 64.9101 17.0864C68.9085 23.6669 69.0856 30.1717 65.443 36.5967C64.741 37.9128 63.9091 39.1289 62.9704 40.2258C61.331 42.2886 59.9852 43.2652 57.7493 44.4717Z" fill="#EDDFBB"/>
<path fill-rule="evenodd" clip-rule="evenodd" d="M38.7913 63.2995C39.0321 70.4482 34.5413 72.9397 25.3164 70.7728C29.5014 67.7592 29.5393 58.9103 38.4504 62.6313C34.2938 64.241 31.782 65.8344 30.9136 67.4129C33.4376 65.3055 36.0631 63.9339 38.7913 63.2995Z" fill="#EDDFBB"/>
<path fill-rule="evenodd" clip-rule="evenodd" d="M28.6421 60.0692C30.13 63.9918 28.1024 66.4441 22.5566 67.4275C24.3164 64.756 22.6621 59.8203 28.327 59.7784C26.3183 61.6612 25.2227 63.1437 25.0387 64.2285C26.0424 62.4566 27.2449 61.0715 28.6421 60.0692Z" fill="#EDDFBB"/>
<path fill-rule="evenodd" clip-rule="evenodd" d="M19.5749 62.0897C20.9059 65.5971 19.0907 67.7897 14.1333 68.6689C15.7051 66.2816 14.2266 61.8666 19.2922 61.83C17.4973 63.5141 16.5166 64.8396 16.3516 65.8095C17.2498 64.2242 18.3237 62.9865 19.5749 62.0897Z" fill="#EDDFBB"/>
<path fill-rule="evenodd" clip-rule="evenodd" d="M11.7677 62.4551C11.3524 66.1884 8.83385 67.0568 4.21191 65.0576C6.61148 63.8903 7.29996 59.3021 11.6405 62.0777C9.36407 62.5187 7.93976 63.1084 7.37031 63.8443C8.83791 62.9894 10.3042 62.5282 11.7677 62.4551Z" fill="#EDDFBB"/>
<path fill-rule="evenodd" clip-rule="evenodd" d="M7.54632 56.4387C7.66265 60.199 5.30095 61.5002 0.453125 60.3478C2.65656 58.7706 2.68766 54.1176 7.36641 56.0883C5.18056 56.9283 3.85769 57.7615 3.40186 58.5894C4.72879 57.487 6.11118 56.7687 7.54632 56.4387Z" fill="#EDDFBB"/>
<path fill-rule="evenodd" clip-rule="evenodd" d="M7.46245 52.7069C3.38698 54.5492 0.899499 51.8791 0 44.6966C2.71608 47.0231 7.83848 44.9847 7.76679 52.3038C5.8677 49.6716 4.35953 48.2256 3.24631 47.9646C5.05207 49.2996 6.45609 50.8795 7.46245 52.7069Z" fill="#EDDFBB"/>
<path fill-rule="evenodd" clip-rule="evenodd" d="M7.64085 45.1835C10.7262 41.6829 9.48176 38.0862 3.90352 34.3949C4.77732 38.0957 1.12927 42.6054 7.19176 45.3472C5.75121 42.37 5.13712 40.2586 5.35083 39.0074C5.75797 41.3853 6.51952 43.444 7.64085 45.1835Z" fill="#EDDFBB"/>
<path fill-rule="evenodd" clip-rule="evenodd" d="M21.1487 54.1204C16.9461 57.1652 13.6484 54.7791 11.2583 46.9609C14.7454 48.9073 20.0828 45.3919 21.4138 53.5956C18.7816 51.1108 16.8162 49.8569 15.5218 49.8339C17.7969 50.8917 19.6744 52.32 21.1487 54.1204Z" fill="#EDDFBB"/>
<path fill-rule="evenodd" clip-rule="evenodd" d="M19.5012 46.6267C16.6349 47.4099 15.2133 45.3688 15.2336 40.4966C16.8378 42.3375 20.4169 41.5381 19.7392 46.3927C18.7045 44.4368 17.828 43.3141 17.1097 43.0206C18.1945 44.1027 18.9912 45.3052 19.5012 46.6267Z" fill="#EDDFBB"/>
<path fill-rule="evenodd" clip-rule="evenodd" d="M23.2573 50.426C20.9497 48.3673 21.5218 45.8568 24.9764 42.8986C24.6586 45.4429 27.4139 48.1211 23.5684 50.4937C24.315 48.3795 24.5747 46.9173 24.3407 46.1017C24.2393 47.7235 23.8781 49.164 23.2573 50.426Z" fill="#EDDFBB"/>
<path fill-rule="evenodd" clip-rule="evenodd" d="M35.9355 52.8053C33.6658 53.905 32.2347 52.4415 31.6382 48.4134C33.1951 49.6808 36.0518 48.4553 36.1005 52.5727C35.0008 51.1213 34.1351 50.3327 33.5048 50.2029C34.5382 50.9252 35.3471 51.7936 35.9355 52.8053Z" fill="#EDDFBB"/>
<path fill-rule="evenodd" clip-rule="evenodd" d="M14.0091 38.2322C12.3778 40.3126 10.5248 39.6741 8.45117 36.3156C10.3408 36.7173 12.4577 34.2447 14.0727 37.9441C12.5239 37.1569 11.4405 36.8566 10.8223 37.0406C12.0302 37.2015 13.0934 37.5992 14.0091 38.2322Z" fill="#EDDFBB"/>
<path fill-rule="evenodd" clip-rule="evenodd" d="M8.82971 31.6963C6.21237 33.7334 4.06845 32.2955 2.39795 27.3774C4.65549 28.5339 7.9843 26.1668 8.98795 31.3568C7.2647 29.8364 5.99052 29.0871 5.16677 29.1033C6.63438 29.7228 7.85581 30.5858 8.82971 31.6963Z" fill="#EDDFBB"/>
<path fill-rule="evenodd" clip-rule="evenodd" d="M9.76502 26.7983C14.0772 26.0909 15.0105 22.409 12.5636 15.7555C11.2827 19.2709 5.98575 20.4031 9.32269 26.6279C9.77041 23.3085 10.4129 21.2241 11.2488 20.3774C10.302 22.5321 9.80695 24.672 9.76502 26.7983Z" fill="#EDDFBB"/>
<path fill-rule="evenodd" clip-rule="evenodd" d="M15.9556 25.4836C18.5595 25.0549 19.1222 22.8338 17.6451 18.8165C16.8714 20.9374 13.6738 21.6205 15.6878 25.3808C15.957 23.3749 16.3466 22.117 16.8511 21.607C16.2789 22.9082 15.9813 24.2013 15.9556 25.4836Z" fill="#EDDFBB"/>
<path fill-rule="evenodd" clip-rule="evenodd" d="M17.042 31.5881C19.0966 31.2527 19.5403 29.4997 18.3757 26.3318C17.7656 28.0064 15.2443 28.5447 16.8323 31.5056C17.046 29.9271 17.3504 28.9356 17.7494 28.5326C17.2976 29.5578 17.0623 30.5764 17.042 31.5881Z" fill="#EDDFBB"/>
<path fill-rule="evenodd" clip-rule="evenodd" d="M13.6264 33.2425C15.2279 31.7682 14.8005 30.0111 12.3427 27.9713C12.5903 29.7568 10.6803 31.6748 13.4072 33.2939C12.8608 31.8182 12.666 30.7929 12.8216 30.2167C12.9068 31.357 13.1746 32.3647 13.6264 33.2425Z" fill="#EDDFBB"/>
<path fill-rule="evenodd" clip-rule="evenodd" d="M20.7819 15.86C16.6158 12.0253 17.7276 7.45744 24.1161 2.15513C23.4695 6.79871 28.4377 11.7832 21.35 15.9939C22.7689 12.1551 23.2775 9.4891 22.8744 7.99309C22.6485 10.954 21.9505 13.5781 20.7819 15.86Z" fill="#EDDFBB"/>
<path fill-rule="evenodd" clip-rule="evenodd" d="M16.9468 12.4619C13.7154 12.2414 12.8173 9.58082 14.2538 4.48276C15.4008 6.99594 19.387 7.45989 17.2647 12.3037C16.748 9.87704 16.1556 8.37968 15.486 7.81157C16.3098 9.34005 16.7967 10.8902 16.9468 12.4619Z" fill="#EDDFBB"/>
<path fill-rule="evenodd" clip-rule="evenodd" d="M33.2324 12.2915C33.4042 10.3289 34.7136 9.83515 37.1618 10.8118C35.9187 11.4597 35.613 13.8755 33.3041 12.489C34.4917 12.2212 35.2303 11.8912 35.5197 11.4962C34.7609 11.9669 33.998 12.232 33.2324 12.2915Z" fill="#EDDFBB"/>
<path fill-rule="evenodd" clip-rule="evenodd" d="M31.3132 11.1825C28.3184 8.03223 29.3708 4.6236 34.4648 0.953914C33.7655 4.4464 37.3148 8.51646 31.7379 11.3164C32.9918 8.47994 33.4977 6.48076 33.2583 5.3202C32.9526 7.56016 32.3046 9.51336 31.3132 11.1825Z" fill="#EDDFBB"/>
<path fill-rule="evenodd" clip-rule="evenodd" d="M27.354 15.1292C28.2454 13.1611 29.7901 13.2436 31.9854 15.374C30.4556 15.4836 29.2598 17.8628 27.3567 15.3645C28.6917 15.6283 29.5831 15.6215 30.0281 15.3415C29.0651 15.4863 28.1751 15.4146 27.354 15.1292Z" fill="#EDDFBB"/>
<path fill-rule="evenodd" clip-rule="evenodd" d="M32.0737 16.9863C32.3145 14.1512 34.2041 13.433 37.7386 14.8316C35.9477 15.7744 35.5148 19.2615 32.1779 17.269C33.8917 16.8795 34.9562 16.3979 35.3728 15.8271C34.2785 16.5102 33.1802 16.8943 32.0737 16.9863Z" fill="#EDDFBB"/>
<path fill-rule="evenodd" clip-rule="evenodd" d="M30.6763 21.6557C30.917 18.8192 32.8053 18.1023 36.3411 19.5009C34.5488 20.4424 34.1187 23.9308 30.7777 21.9384C32.4929 21.5475 33.5587 21.0673 33.9753 20.4965C32.8824 21.1782 31.7814 21.565 30.6763 21.6557Z" fill="#EDDFBB"/>
<path fill-rule="evenodd" clip-rule="evenodd" d="M23.6099 21.5165C23.8506 18.6827 25.7389 17.9645 29.2747 19.3618C27.4825 20.3046 27.0523 23.7943 23.7113 21.7992C25.4264 21.4096 26.4923 20.9295 26.9089 20.3573C25.816 21.0404 24.7136 21.4272 23.6099 21.5165Z" fill="#EDDFBB"/>
<path fill-rule="evenodd" clip-rule="evenodd" d="M36.092 40.3953C31.8204 38.7383 31.5066 34.7859 35.1506 28.5368C35.8512 32.3972 41.0494 34.698 36.5722 40.3155C36.6912 36.8351 36.3963 34.5749 35.6916 33.532C36.2841 35.9316 36.4166 38.2202 36.092 40.3953Z" fill="#EDDFBB"/>
<path fill-rule="evenodd" clip-rule="evenodd" d="M24.8307 30.3832C23.382 29.0495 23.7688 27.4602 25.9912 25.6179C25.7667 27.2316 27.4926 28.967 25.0268 30.4292C25.5218 29.0942 25.6991 28.169 25.5584 27.6482C25.4799 28.6775 25.2378 29.5892 24.8307 30.3832Z" fill="#EDDFBB"/>
<path fill-rule="evenodd" clip-rule="evenodd" d="M28.1967 37.7153C26.322 37.7099 25.72 36.2072 26.3977 33.2057C27.1376 34.6138 29.4547 34.7301 28.3753 37.6112C28.0019 36.2274 27.6137 35.3861 27.2106 35.0831C27.7328 35.9353 28.0614 36.8118 28.1967 37.7153Z" fill="#EDDFBB"/>
<path fill-rule="evenodd" clip-rule="evenodd" d="M34.868 26.2023C34.91 28.9319 33.18 29.8436 29.6753 28.9332C31.293 27.8214 31.3728 24.4466 34.7422 25.9453C33.1461 26.5215 32.1776 27.1072 31.8354 27.701C32.812 26.9219 33.8238 26.4214 34.868 26.2023Z" fill="#EDDFBB"/>
<path fill-rule="evenodd" clip-rule="evenodd" d="M41.7692 24.7031C38.6229 25.6364 37.016 23.4181 36.9443 18.0468C38.7501 20.0379 42.6795 19.0694 42.0262 24.438C40.8467 22.309 39.8592 21.0902 39.0625 20.7845C40.2786 21.9505 41.1808 23.2572 41.7692 24.7031Z" fill="#EDDFBB"/>
<path fill-rule="evenodd" clip-rule="evenodd" d="M42.0669 12.1887C39.6592 11.2676 39.4739 9.04386 41.5096 5.51891C41.9114 7.68717 44.8438 8.96676 42.3374 12.1414C42.3942 10.1828 42.2251 8.90995 41.8248 8.32561C42.1643 9.67554 42.2454 10.9632 42.0669 12.1887Z" fill="#EDDFBB"/>
<path fill-rule="evenodd" clip-rule="evenodd" d="M45.0719 13.95C44.2685 9.98675 46.5409 8.06873 51.8933 8.19723C49.8386 10.3696 50.6462 15.3148 45.3236 14.2827C47.4932 12.8963 48.7443 11.7114 49.0811 10.7294C47.8705 12.201 46.5341 13.275 45.0719 13.95Z" fill="#EDDFBB"/>
<path fill-rule="evenodd" clip-rule="evenodd" d="M47.8657 6.41853C47.2989 1.37998 50.3356 -0.69089 56.977 0.201845C54.1852 2.62035 54.6464 8.8776 48.143 6.86624C50.9916 5.44057 52.6784 4.13934 53.2045 2.9639C51.5394 4.62764 49.758 5.78009 47.8657 6.41853Z" fill="#EDDFBB"/>
<path fill-rule="evenodd" clip-rule="evenodd" d="M45.1305 22.0385C43.832 19.4022 45.0994 17.5139 48.9328 16.375C47.8696 18.3945 49.3494 21.7301 45.3713 22.217C46.6617 20.7332 47.3353 19.6011 47.3962 18.826C46.8051 20.1502 46.0476 21.2229 45.1305 22.0385Z" fill="#EDDFBB"/>
<path fill-rule="evenodd" clip-rule="evenodd" d="M44.8191 7.36914C42.6779 6.86055 42.3141 4.98039 43.7289 1.73273C44.274 3.54119 46.8954 4.29597 45.0464 7.29745C44.9165 5.61884 44.6528 4.55026 44.2578 4.09578C44.6717 5.2117 44.8597 6.30192 44.8191 7.36914Z" fill="#EDDFBB"/>
<path fill-rule="evenodd" clip-rule="evenodd" d="M41.1349 45.1198C39.5767 41.9533 41.097 39.6863 45.7014 38.3201C44.4231 40.744 46.2018 44.7478 41.4257 45.3335C42.9745 43.5494 43.7847 42.1927 43.855 41.2607C43.1435 42.8528 42.2386 44.1378 41.1349 45.1198Z" fill="#EDDFBB"/>
<path fill-rule="evenodd" clip-rule="evenodd" d="M48.363 33.5293C45.3615 32.1929 45.2519 29.3591 48.0329 25.0307C48.4198 27.8131 52.0665 29.6418 48.7092 33.4901C48.8932 31.0121 48.7485 29.3862 48.2737 28.6138C48.6281 30.3506 48.6578 31.9887 48.363 33.5293Z" fill="#EDDFBB"/>
<path fill-rule="evenodd" clip-rule="evenodd" d="M52.8701 26.6604C49.4466 25.7758 48.911 22.7513 51.2605 17.5843C52.0883 20.5019 56.2787 21.7963 53.2353 26.5522C53.069 23.8537 52.674 22.1331 52.0504 21.3919C52.6875 23.1923 52.9594 24.948 52.8701 26.6604Z" fill="#EDDFBB"/>
<path fill-rule="evenodd" clip-rule="evenodd" d="M55.0466 17.0893C57.6301 14.4246 56.7577 11.5002 52.4279 8.31342C53.0001 11.3054 49.9337 14.7533 54.6814 17.2002C53.6318 14.7628 53.2138 13.049 53.4262 12.0589C53.671 13.9755 54.2107 15.6514 55.0466 17.0893Z" fill="#EDDFBB"/>
<path fill-rule="evenodd" clip-rule="evenodd" d="M55.7781 28.9099C58.0722 29.7404 59.3369 28.1714 59.5804 24.2041C58.1763 25.596 55.3034 24.7046 55.5982 28.7029C56.5451 27.1812 57.3174 26.3237 57.918 26.1343C56.9779 26.9432 56.2637 27.867 55.7781 28.9099Z" fill="#EDDFBB"/>
<path fill-rule="evenodd" clip-rule="evenodd" d="M61.9354 25.1836C59.1178 23.6646 59.1814 20.9215 62.1288 16.9501C62.3344 19.6649 65.7457 21.7087 62.2708 25.1701C62.6008 22.7908 62.5575 21.2109 62.1477 20.4305C62.3844 22.1321 62.3127 23.7173 61.9354 25.1836Z" fill="#EDDFBB"/>
<path fill-rule="evenodd" clip-rule="evenodd" d="M58.5488 32.1307C58.8843 28.6503 61.2189 27.7995 65.546 29.581C63.329 30.7077 62.7487 34.9888 58.6706 32.4796C60.7861 32.0306 62.1022 31.4584 62.6229 30.7631C61.2676 31.5828 59.9109 32.0373 58.5488 32.1307Z" fill="#EDDFBB"/>
<path fill-rule="evenodd" clip-rule="evenodd" d="M50.1162 38.2348C50.545 33.7996 53.5167 32.7175 59.03 34.9885C56.2058 36.421 55.4672 41.8775 50.2718 38.6799C52.9649 38.1063 54.6435 37.3773 55.3063 36.4927C53.5803 37.5369 51.8489 38.1172 50.1162 38.2348Z" fill="#EDDFBB"/>
<path fill-rule="evenodd" clip-rule="evenodd" d="M54.2893 45.8638C52.6986 44.0513 53.3452 42.1982 56.2263 40.2977C55.7718 42.2076 57.6506 44.5396 54.5206 45.9463C55.2659 44.4111 55.5851 43.3235 55.4755 42.677C55.2645 43.9038 54.8682 44.967 54.2893 45.8638Z" fill="#EDDFBB"/>
<path fill-rule="evenodd" clip-rule="evenodd" d="M61.6218 40.1162C60.0311 38.305 60.6777 36.4519 63.5588 34.5528C63.1043 36.4614 64.9831 38.7933 61.8531 40.2014C62.5984 38.6675 62.9176 37.5773 62.8081 36.9308C62.5971 38.1576 62.2007 39.2208 61.6218 40.1162Z" fill="#EDDFBB"/>
<path fill-rule="evenodd" clip-rule="evenodd" d="M48.9202 51.5857C46.683 51.1691 46.2312 49.2429 47.5635 45.81C48.1993 47.655 50.9438 48.3029 49.1515 51.5018C48.95 49.7705 48.6335 48.6789 48.206 48.2298C48.6795 49.3593 48.9175 50.4792 48.9202 51.5857Z" fill="#EDDFBB"/>
<path fill-rule="evenodd" clip-rule="evenodd" d="M64.9075 12.0385C62.8962 14.7181 60.5372 13.9701 57.8306 9.79045C60.2301 10.2382 62.8434 7.04461 64.9792 11.6706C63.0017 10.7278 61.6233 10.3802 60.8456 10.6318C62.3781 10.7968 63.7321 11.2662 64.9075 12.0385Z" fill="#EDDFBB"/>
<path fill-rule="evenodd" clip-rule="evenodd" d="M76.3601 14.9237C71.4542 15.1699 69.7201 11.3203 71.1566 3.37497C73.2464 6.95673 79.3224 6.94321 76.816 14.6275C75.6879 11.062 74.5801 8.90857 73.4939 8.17139C74.9521 10.3288 75.9084 12.581 76.3601 14.9237Z" fill="#EDDFBB"/>
<path fill-rule="evenodd" clip-rule="evenodd" d="M69.0547 11.3407C65.4323 12.5148 63.517 9.99212 63.3101 3.77138C65.4486 6.02215 69.9799 4.78585 69.3482 11.0269C67.932 8.59351 66.7579 7.21111 65.826 6.87972C67.2651 8.19447 68.3418 9.68238 69.0547 11.3407Z" fill="#EDDFBB"/>
<path fill-rule="evenodd" clip-rule="evenodd" d="M67.7396 18.7773C65.8067 18.6056 65.2954 17.004 66.2043 13.9701C66.8671 15.4877 69.2477 15.8124 67.9316 18.6867C67.6449 17.2272 67.3054 16.3237 66.9104 15.976C67.3892 16.9012 67.6652 17.8359 67.7396 18.7773Z" fill="#EDDFBB"/>
<path fill-rule="evenodd" clip-rule="evenodd" d="M70.7124 24.6953C68.5956 23.2547 68.8377 21.0986 71.432 18.223C71.4077 20.3817 73.9574 22.2849 70.9789 24.7156C71.4009 22.8665 71.478 21.618 71.2075 20.9674C71.2765 22.3295 71.1128 23.5726 70.7124 24.6953Z" fill="#EDDFBB"/>
<path fill-rule="evenodd" clip-rule="evenodd" d="M71.162 33.9052C69.0465 32.4647 69.2845 30.3086 71.8816 27.4329C71.8572 29.5917 74.4042 31.4949 71.4271 33.9255C71.8505 32.0778 71.9249 30.8267 71.6557 30.1774C71.7247 31.5395 71.5597 32.7826 71.162 33.9052Z" fill="#EDDFBB"/>
<path fill-rule="evenodd" clip-rule="evenodd" d="M67.6798 26.6864C66.1337 27.295 65.2477 26.2535 65.0205 23.5604C65.9985 24.4789 67.9368 23.8174 67.7988 26.5416C67.132 25.5244 66.5909 24.9591 66.1797 24.84C66.8344 25.3716 67.3321 25.9871 67.6798 26.6864Z" fill="#EDDFBB"/>
<path fill-rule="evenodd" clip-rule="evenodd" d="M81.9922 13.0205C82.448 15.132 83.9413 15.4458 86.4775 13.9647C85.0329 13.4696 84.3742 10.8874 82.0436 12.7946C83.3746 12.8826 84.2254 13.1179 84.5947 13.4966C83.7033 13.1166 82.8362 12.9556 81.9922 13.0205Z" fill="#EDDFBB"/>
<path fill-rule="evenodd" clip-rule="evenodd" d="M79.4897 16.2859C80.1607 19.4024 82.3668 19.8677 86.1095 17.6805C83.9791 16.95 83.0039 13.1383 79.5641 15.9518C81.5309 16.083 82.7861 16.4293 83.3312 16.992C82.0165 16.4266 80.7342 16.1912 79.4897 16.2859Z" fill="#EDDFBB"/>
<path fill-rule="evenodd" clip-rule="evenodd" d="M81.3918 12.6649C82.5186 11.4137 82.083 10.1111 80.0811 8.75173C80.3841 10.0922 79.0518 11.7045 81.2295 12.719C80.7209 11.6409 80.5072 10.874 80.587 10.4249C80.7264 11.2839 80.9942 12.0319 81.3918 12.6649Z" fill="#EDDFBB"/>
<path fill-rule="evenodd" clip-rule="evenodd" d="M81.3428 25.7646C79.3179 25.2412 79.0001 23.4503 80.3946 20.392C80.8829 22.1193 83.3623 22.8876 81.5592 25.7038C81.4605 24.105 81.2292 23.0864 80.8613 22.6468C81.2373 23.7127 81.3969 24.7515 81.3428 25.7646Z" fill="#EDDFBB"/>
<path fill-rule="evenodd" clip-rule="evenodd" d="M79.9015 31.0242C77.8739 30.5007 77.5588 28.7085 78.952 25.6502C79.4403 27.3802 81.921 28.1458 80.1166 30.962C80.0192 29.3645 79.7852 28.346 79.4173 27.905C79.7933 28.9722 79.9543 30.0111 79.9015 31.0242Z" fill="#EDDFBB"/>
<path fill-rule="evenodd" clip-rule="evenodd" d="M82.3226 27.9768C81.5042 26.3563 82.2766 25.1782 84.641 24.4464C83.9944 25.7016 84.9291 27.7536 82.4741 28.085C83.2613 27.1571 83.6711 26.4523 83.7036 25.9722C83.3465 26.7959 82.8853 27.4641 82.3226 27.9768Z" fill="#EDDFBB"/>
<path fill-rule="evenodd" clip-rule="evenodd" d="M81.6974 34.8265C80.8777 33.2047 81.65 32.0279 84.0144 31.2961C83.3706 32.5527 84.3039 34.6033 81.8475 34.936C82.6361 34.0054 83.0459 33.3021 83.0798 32.8205C82.7186 33.6456 82.2601 34.3152 81.6974 34.8265Z" fill="#EDDFBB"/>
<path fill-rule="evenodd" clip-rule="evenodd" d="M87.1686 26.1575C84.5458 25.3851 84.1941 23.0356 86.1189 19.1103C86.6965 21.384 89.9022 22.4932 87.454 26.0871C87.3809 23.9987 87.1131 22.6596 86.6465 22.0698C87.1023 23.4779 87.2754 24.84 87.1686 26.1575Z" fill="#EDDFBB"/>
<path fill-rule="evenodd" clip-rule="evenodd" d="M88.1266 29.4522C87.2826 26.2249 89.0735 24.5151 93.4979 24.3149C91.9005 26.2249 92.7905 30.2625 88.3498 29.7133C90.0785 28.4432 91.0578 27.3962 91.2918 26.5671C90.3598 27.848 89.3034 28.8111 88.1266 29.4522Z" fill="#EDDFBB"/>
<path fill-rule="evenodd" clip-rule="evenodd" d="M87.1191 33.4668C87.4221 31.1755 88.9831 30.6831 91.802 31.987C90.31 32.6647 89.8285 35.4795 87.1895 33.7022C88.5989 33.4668 89.4835 33.1273 89.842 32.6823C88.9276 33.1841 88.0186 33.4452 87.1191 33.4668Z" fill="#EDDFBB"/>
<path fill-rule="evenodd" clip-rule="evenodd" d="M83.2749 38.1793C83.5806 35.888 85.1415 35.3956 87.9604 36.6996C86.4685 37.3799 85.9842 40.1921 83.3479 38.4147C84.756 38.1794 85.6393 37.8398 85.9991 37.3948C85.0847 37.8966 84.1771 38.1604 83.2749 38.1793Z" fill="#EDDFBB"/>
<path fill-rule="evenodd" clip-rule="evenodd" d="M85.8405 42.4632C87.7152 43.4439 87.6895 45.2591 85.7661 47.9116C85.6119 46.1167 83.3422 44.7952 85.6173 42.474C85.4157 44.0512 85.455 45.0955 85.7323 45.6095C85.5645 44.4841 85.601 43.4371 85.8405 42.4632Z" fill="#EDDFBB"/>
<path fill-rule="evenodd" clip-rule="evenodd" d="M82.612 40.7712C84.7343 41.8817 84.7072 43.9364 82.5308 46.9392C82.355 44.9062 79.7837 43.4088 82.3604 40.782C82.1318 42.5689 82.1765 43.7524 82.4903 44.334C82.2995 43.0612 82.3401 41.8709 82.612 40.7712Z" fill="#EDDFBB"/>
<path fill-rule="evenodd" clip-rule="evenodd" d="M84.9112 40.375C85.4644 39.3226 86.3125 39.4268 87.4609 40.6874C86.6128 40.6888 85.8797 41.9575 84.9058 40.5062C85.6348 40.7009 86.1272 40.7307 86.3801 40.5941C85.8445 40.6374 85.3562 40.5643 84.9112 40.375Z" fill="#EDDFBB"/>
<path fill-rule="evenodd" clip-rule="evenodd" d="M60.0379 60.2993C65.7244 57.0286 69.6416 60.5306 71.7882 70.8052C67.5815 67.8334 60.4004 71.5396 59.6416 60.9269C62.704 64.4627 65.0575 66.3347 66.701 66.5471C63.9294 64.8807 61.7098 62.7963 60.0379 60.2993Z" fill="#EDDFBB"/>
<path fill-rule="evenodd" clip-rule="evenodd" d="M81.2122 61.9345C79.4944 66.4631 81.8358 69.2928 88.2364 70.4263C86.2061 67.345 88.1133 61.6477 81.5774 61.599C83.8945 63.7713 85.1592 65.4838 85.3729 66.7349C84.211 64.6898 82.8259 63.091 81.2122 61.9345Z" fill="#EDDFBB"/>
<path fill-rule="evenodd" clip-rule="evenodd" d="M73.3076 61.4583C71.8197 65.3823 73.8486 67.8333 79.3931 68.8167C77.6333 66.1452 79.2876 61.2095 73.6228 61.1675C75.6314 63.0504 76.727 64.5329 76.9123 65.6177C75.906 63.8457 74.7048 62.4606 73.3076 61.4583Z" fill="#EDDFBB"/>
<path fill-rule="evenodd" clip-rule="evenodd" d="M86.5361 61.1365C86.9068 64.464 89.1508 65.2363 93.2722 63.4563C91.1337 62.4147 90.5183 58.3244 86.6471 60.7983C88.6801 61.1933 89.9488 61.7168 90.4561 62.3755C89.1467 61.614 87.8401 61.2014 86.5361 61.1365Z" fill="#EDDFBB"/>
<path fill-rule="evenodd" clip-rule="evenodd" d="M89.689 55.3781C91.7774 59.7052 95.2145 59.4265 100 54.5368C96.582 54.388 93.7969 49.1628 89.6836 54.8479C92.6472 54.1783 94.6302 54.1391 95.6365 54.7356C93.4858 54.4746 91.5042 54.6883 89.689 55.3781Z" fill="#EDDFBB"/>
<path fill-rule="evenodd" clip-rule="evenodd" d="M90.1212 49.0047C92.9455 50.87 95.0462 49.2076 96.4191 44.0175C94.1845 45.3972 90.6055 43.26 89.9346 48.6719C91.597 46.9622 92.8536 46.0816 93.7003 46.0275C92.2354 46.7891 91.0424 47.7819 90.1212 49.0047Z" fill="#EDDFBB"/>
<path fill-rule="evenodd" clip-rule="evenodd" d="M89.7471 45.0764C94.0809 44.8735 95.3415 41.3405 93.5358 34.4745C91.9424 37.8033 86.5995 38.3106 89.3264 44.8546C90.0757 41.6218 90.9036 39.6348 91.8085 38.8935C90.6736 40.9171 89.9851 42.9758 89.7471 45.0764Z" fill="#EDDFBB"/>
<path fill-rule="evenodd" clip-rule="evenodd" d="M76.053 47.3044C73.7278 47.0055 73.1678 45.0469 74.3798 41.4246C75.1224 43.2885 77.9845 43.793 76.2897 47.2016C75.9962 45.427 75.6202 44.3205 75.1562 43.8823C75.6986 45.0212 75.9989 46.1615 76.053 47.3044Z" fill="#EDDFBB"/>
<path fill-rule="evenodd" clip-rule="evenodd" d="M73.3731 51.1001C71.0452 50.8025 70.4852 48.8426 71.6985 45.2229C72.4411 47.0841 75.3046 47.5914 73.6084 50.9973C73.3163 49.2254 72.9375 48.1162 72.4763 47.6793C73.0187 48.8169 73.3176 49.9585 73.3731 51.1001Z" fill="#EDDFBB"/>
<path fill-rule="evenodd" clip-rule="evenodd" d="M77.0269 50.0746C79.2912 50.7496 80.4477 49.1535 80.5031 45.2877C79.2033 46.7174 76.3722 46.0181 76.8402 49.8839C77.691 48.3527 78.4025 47.4762 78.976 47.2571C78.1009 48.0944 77.4503 49.0345 77.0269 50.0746Z" fill="#EDDFBB"/>
<path fill-rule="evenodd" clip-rule="evenodd" d="M61.9707 51.4002C62.0099 47.5628 64.4758 46.3603 69.3669 47.7954C67.0539 49.2847 66.8239 54.027 62.1371 51.7695C64.4027 51.0282 65.7865 50.2491 66.2883 49.4294C64.8856 50.4845 63.4478 51.1418 61.9707 51.4002Z" fill="#EDDFBB"/>
<path fill-rule="evenodd" clip-rule="evenodd" d="M74.8238 53.8199C76.8676 56.2479 79.0764 55.3903 81.449 51.2459C79.186 51.8194 76.543 48.941 74.7358 53.475C76.5741 52.4551 77.8685 52.0399 78.6206 52.2333C77.1692 52.4835 75.9045 53.0124 74.8238 53.8199Z" fill="#EDDFBB"/>
<path fill-rule="evenodd" clip-rule="evenodd" d="M83.6329 53.7201C82.283 52.6055 82.5602 51.1691 84.4648 49.4052C84.3335 50.8593 85.9472 52.3147 83.8101 53.7512C84.1942 52.5339 84.3119 51.6979 84.1658 51.2407C84.1388 52.1619 83.9616 52.9897 83.6329 53.7201Z" fill="#EDDFBB"/>
</svg>
