<svg width="31" height="31" viewBox="0 0 31 31" fill="none" xmlns="http://www.w3.org/2000/svg">
<path d="M0.387695 30.1226L2.47904 22.4878C1.18883 20.2536 0.51035 17.7182 0.511126 15.1215C0.515008 6.99757 7.12594 0.388184 15.2507 0.388184C19.1935 0.389736 22.8933 1.92447 25.6763 4.70905C28.4585 7.4944 29.991 11.1958 29.9894 15.1331C29.9863 23.2571 23.3738 29.8672 15.2507 29.8672C15.2499 29.8672 15.2507 29.8672 15.2507 29.8672H15.2444C12.7782 29.8665 10.3538 29.2478 8.20111 28.0732L0.387695 30.1226Z" fill="#EDDFBB"/>
<path d="M0.387809 30.5108C0.285338 30.5108 0.185972 30.4704 0.112224 30.3959C0.0151866 30.2973 -0.0228518 30.1537 0.0136341 30.0209L2.06228 22.5405C0.792259 20.2846 0.122315 17.7228 0.123868 15.1222C0.126973 6.78327 6.91258 0 15.2508 0C19.2953 0.00155259 23.0952 1.57666 25.9512 4.43498C28.8072 7.29408 30.3792 11.0933 30.3777 15.1331C30.3746 23.4713 23.5882 30.2554 15.2508 30.2554C12.7752 30.2546 10.3259 29.6436 8.15232 28.4877L0.486398 30.4976C0.453794 30.5069 0.421189 30.5108 0.387809 30.5108Z" fill="#EDDFBB"/>
<path d="M23.9155 6.4681C21.6022 4.15318 18.5273 2.87773 15.2544 2.87695C8.49753 2.87695 3.00213 8.37002 2.99902 15.1222C2.99825 17.4364 3.64568 19.6892 4.87223 21.64L5.16411 22.1035L3.92592 26.6223L8.56274 25.4066L9.01066 25.6721C10.8908 26.7884 13.0474 27.3784 15.2459 27.3792H15.2505C22.0027 27.3792 27.4981 21.8853 27.5005 15.1323C27.5012 11.8602 26.2289 8.78301 23.9155 6.4681Z" fill="#484E45"/>
<path fill-rule="evenodd" clip-rule="evenodd" d="M11.5664 8.9625C11.2908 8.34923 11.0005 8.33681 10.7373 8.32594C10.5223 8.31662 10.277 8.3174 10.0317 8.3174C9.78639 8.3174 9.38737 8.40978 9.04968 8.77852C8.71199 9.14726 7.76025 10.0377 7.76025 11.8495C7.76025 13.6614 9.07996 15.4127 9.26394 15.6581C9.44792 15.9034 11.8117 19.7406 15.555 21.2171C18.6657 22.4437 19.2991 22.1999 19.9745 22.1386C20.6499 22.0772 22.1536 21.2482 22.4602 20.388C22.7668 19.5279 22.7668 18.7912 22.6752 18.6375C22.5828 18.4838 22.3375 18.3922 21.9696 18.2074C21.6016 18.0226 19.7905 17.1322 19.4528 17.0096C19.1151 16.8869 18.8698 16.8256 18.6237 17.1943C18.3784 17.5623 17.6728 18.3922 17.4577 18.6375C17.2427 18.8836 17.0277 18.9146 16.6597 18.7299C16.2917 18.5451 15.1056 18.1569 13.6981 16.9025C12.6036 15.9267 11.8645 14.7211 11.6495 14.3523C11.4345 13.9844 11.6262 13.7849 11.811 13.6009C11.9763 13.4355 12.1789 13.1708 12.3637 12.9558C12.5477 12.7407 12.609 12.587 12.7317 12.3417C12.8543 12.0956 12.793 11.8806 12.7006 11.6966C12.6098 11.5119 11.894 9.69067 11.5664 8.9625Z" fill="#EDDFBB"/>
</svg>
